<?xml version="1.0" encoding="utf-8"?>
<!-- Generator: Adobe Illustrator 20.0.0, SVG Export Plug-In . SVG Version: 6.00 Build 0)  -->
<svg version="1.1" id="BOSCH_SUPERGRAPHIC_A3_4C" width="505" height="1191" xmlns="http://www.w3.org/2000/svg" xmlns:xlink="http://www.w3.org/1999/xlink"
	 x="0px" y="0px" viewBox="0 0 504.6 1190.6" enable-background="new 0 0 504.6 1190.6" xml:space="preserve">
<g>

		<linearGradient id="SVGID_1_" gradientUnits="userSpaceOnUse" x1="-342.9932" y1="595.2764" x2="847.5596" y2="595.2764" gradientTransform="matrix(4.489659e-11 -1 1 4.489659e-11 -342.9932 847.5596)">
		<stop  offset="0" style="stop-color:#902336"/>
		<stop  offset="3.609390e-02" style="stop-color:#90181B"/>
		<stop  offset="8.464910e-02" style="stop-color:#AF2B41"/>
		<stop  offset="0.1237" style="stop-color:#AF1E23"/>
		<stop  offset="0.1298" style="stop-color:#B61F24"/>
		<stop  offset="0.1548" style="stop-color:#D12027"/>
		<stop  offset="0.1697" style="stop-color:#DA2128"/>
		<stop  offset="0.1825" style="stop-color:#C5273F"/>
		<stop  offset="0.2091" style="stop-color:#8E387A"/>
		<stop  offset="0.2142" style="stop-color:#833B86"/>
		<stop  offset="0.2436" style="stop-color:#813C87"/>
		<stop  offset="0.2638" style="stop-color:#6C3F99"/>
		<stop  offset="0.2911" style="stop-color:#344A9A"/>
		<stop  offset="0.3242" style="stop-color:#023F88"/>
		<stop  offset="0.4133" style="stop-color:#30337B"/>
		<stop  offset="0.4181" style="stop-color:#32327B"/>
		<stop  offset="0.494" style="stop-color:#234093"/>
		<stop  offset="0.5581" style="stop-color:#1C68A6"/>
		<stop  offset="0.5829" style="stop-color:#2E7EAD"/>
		<stop  offset="0.6303" style="stop-color:#4BA2B9"/>
		<stop  offset="0.6556" style="stop-color:#56B0BD"/>
		<stop  offset="0.672" style="stop-color:#50AEBC"/>
		<stop  offset="0.693" style="stop-color:#40A8BA"/>
		<stop  offset="0.7165" style="stop-color:#269FB6"/>
		<stop  offset="0.7416" style="stop-color:#0292B0"/>
		<stop  offset="0.7426" style="stop-color:#0092B0"/>
		<stop  offset="0.8459" style="stop-color:#00A674"/>
		<stop  offset="0.8875" style="stop-color:#00AE5A"/>
		<stop  offset="1" style="stop-color:#009B85"/>
	</linearGradient>
	<rect x="0" y="0" fill="url(#SVGID_1_)" width="504.6" height="1190.6"/>
	<g>

			<linearGradient id="SVGID_2_" gradientUnits="userSpaceOnUse" x1="-3.6167" y1="721.4191" x2="-150.4062" y2="721.4191" gradientTransform="matrix(4.489659e-11 -1 1 4.489659e-11 -342.9932 847.5596)">
			<stop  offset="0" style="stop-color:#833B86"/>
			<stop  offset="0.3354" style="stop-color:#833B86"/>
			<stop  offset="0.6998" style="stop-color:#893163"/>
			<stop  offset="1" style="stop-color:#8D2A4B"/>
			<stop  offset="1" style="stop-color:#8D2A4A"/>
		</linearGradient>
		<polygon fill="url(#SVGID_2_)" points="504.6,998 504.6,851.2 252.3,902.3 		"/>

			<linearGradient id="SVGID_3_" gradientUnits="userSpaceOnUse" x1="249.5855" y1="343.4847" x2="196.2586" y2="676.9448" gradientTransform="matrix(4.489659e-11 -1 1 4.489659e-11 -342.9932 847.5596)">
			<stop  offset="0" style="stop-color:#32327B"/>
			<stop  offset="0.2427" style="stop-color:#32327B"/>
			<stop  offset="0.4436" style="stop-color:#2D367E"/>
			<stop  offset="0.6801" style="stop-color:#1F3F89"/>
			<stop  offset="0.9337" style="stop-color:#074F9A"/>
			<stop  offset="1" style="stop-color:#00549F"/>
		</linearGradient>
		<polygon fill="url(#SVGID_3_)" points="0,601 0,675.4 252.3,715.8 504.6,679 504.6,601 		"/>

			<linearGradient id="SVGID_4_" gradientUnits="userSpaceOnUse" x1="-54.7251" y1="595.2764" x2="74.9892" y2="595.2764" gradientTransform="matrix(4.489659e-11 -1 1 4.489659e-11 -342.9932 847.5596)">
			<stop  offset="0" style="stop-color:#6C3F99"/>
			<stop  offset="1" style="stop-color:#344A9A"/>
		</linearGradient>
		<polygon fill="url(#SVGID_4_)" points="0,845.7 0,845.8 252.3,902.3 504.6,851.2 252.3,772.6 		"/>

			<linearGradient id="SVGID_5_" gradientUnits="userSpaceOnUse" x1="172.1562" y1="595.2764" x2="-3.6167" y2="595.2764" gradientTransform="matrix(4.489659e-11 -1 1 4.489659e-11 -342.9932 847.5596)">
			<stop  offset="0" style="stop-color:#023F88"/>
			<stop  offset="0.195" style="stop-color:#073F89"/>
			<stop  offset="0.4257" style="stop-color:#153F8A"/>
			<stop  offset="0.6745" style="stop-color:#2D408C"/>
			<stop  offset="0.9345" style="stop-color:#4E408F"/>
			<stop  offset="1" style="stop-color:#584090"/>
		</linearGradient>
		<polygon fill="url(#SVGID_5_)" points="0,675.4 0,845.7 252.3,772.6 504.6,851.2 504.6,679 252.3,715.8 		"/>
		<polygon fill="#AF1E23" points="0,999.4 0,1099 156.2,1099 252.3,1042.6 348.4,1099 504.6,1099 504.6,998 252.3,1033.9 		"/>

			<linearGradient id="SVGID_6_" gradientUnits="userSpaceOnUse" x1="2.948" y1="469.136" x2="-155.8472" y2="469.136" gradientTransform="matrix(4.489659e-11 -1 1 4.489659e-11 -342.9932 847.5596)">
			<stop  offset="0" style="stop-color:#833B86"/>
			<stop  offset="0.3354" style="stop-color:#833B86"/>
			<stop  offset="0.6998" style="stop-color:#893163"/>
			<stop  offset="1" style="stop-color:#8D2A4B"/>
			<stop  offset="1" style="stop-color:#8D2A4A"/>
		</linearGradient>
		<polygon fill="url(#SVGID_6_)" points="0,845.8 0,999.4 252.3,902.3 		"/>
		<polygon fill="#90181B" points="0,1099 0,1190.6 156.2,1099 		"/>
		<polygon fill="#AF2B41" points="252.3,1042.6 156.2,1099 348.4,1099 		"/>
		<polygon fill="#90181B" points="504.6,1190.6 504.6,1099 348.4,1099 		"/>
		<polygon fill="#902336" points="156.2,1099 0,1190.6 504.6,1190.6 348.4,1099 		"/>
		<polygon fill="#DA2128" points="0,999.4 252.3,1033.9 504.6,998 252.3,902.3 		"/>

			<linearGradient id="SVGID_7_" gradientUnits="userSpaceOnUse" x1="694.2476" y1="342.9932" x2="694.2476" y2="847.5596" gradientTransform="matrix(4.489659e-11 -1 1 4.489659e-11 -342.9932 847.5596)">
			<stop  offset="0" style="stop-color:#8BBE63"/>
			<stop  offset="0.2249" style="stop-color:#85BE6E"/>
			<stop  offset="0.638" style="stop-color:#7DBC7C"/>
			<stop  offset="1" style="stop-color:#7ABC80"/>
		</linearGradient>
		<path fill="url(#SVGID_7_)" d="M427.4,134.2c-41.8-2.9-90-16.5-141-30.9c-8.2-2.3-16.4-4.7-24.9-7c-9,2.3-18,4.7-26.7,7
			c-54.8,14.4-106.6,28.1-151.5,30.9c-34.9,2.2-60.9-2.3-83.3-14.7l0,75.6c30.1,12.4,47.9,16.9,82.8,14.7
			c44.9-2.9,96.7-16.5,151.5-30.9c81.2-21.4,174.8-46.1,270.3-38.2v-21.2C483.7,131.9,459.9,136.4,427.4,134.2z"/>

			<linearGradient id="SVGID_8_" gradientUnits="userSpaceOnUse" x1="537.439" y1="348.3518" x2="668.7059" y2="845.1738" gradientTransform="matrix(4.489659e-11 -1 1 4.489659e-11 -342.9932 847.5596)">
			<stop  offset="0" style="stop-color:#00AE5A"/>
			<stop  offset="0.2918" style="stop-color:#00AB61"/>
			<stop  offset="0.7027" style="stop-color:#00A373"/>
			<stop  offset="1" style="stop-color:#009B85"/>
		</linearGradient>
		<path fill="url(#SVGID_8_)" d="M234.3,178.9c-54.8,14.4-106.6,28.1-151.5,30.9C47.9,212,30.1,207.5,0,195.1l0,58.4
			c88.8-9.3,175.7,6.2,274.6,22.4c57.7,9.4,117.3,19.2,165.7,21.7c34.8,1.8,53.9-0.6,64.3-2.9v-154
			C409.1,132.8,315.5,157.5,234.3,178.9z"/>
		<path fill="#1EA34A" d="M261.6,96.3c8.4,2.3,16.7,4.7,24.9,7c51,14.4,99.2,28.1,141,30.9c32.5,2.2,56.3-2.3,77.2-14.7V65.1
			C419.4,58,336.2,76.9,261.6,96.3z"/>

			<linearGradient id="SVGID_9_" gradientUnits="userSpaceOnUse" x1="799.4199" y1="342.9932" x2="799.4199" y2="847.5596" gradientTransform="matrix(4.489659e-11 -1 1 4.489659e-11 -342.9932 847.5596)">
			<stop  offset="0" style="stop-color:#68A16A"/>
			<stop  offset="9.773719e-02" style="stop-color:#579D61"/>
			<stop  offset="0.2662" style="stop-color:#429756"/>
			<stop  offset="0.4535" style="stop-color:#33934E"/>
			<stop  offset="0.6725" style="stop-color:#2A914A"/>
			<stop  offset="1" style="stop-color:#289048"/>
		</linearGradient>
		<path fill="url(#SVGID_9_)" d="M0,70.1c91.1-17.6,181.8,4,261.6,26.2c74.6-19.3,157.8-38.2,243-31.1V0L0,0L0,70.1z"/>

			<linearGradient id="SVGID_10_" gradientUnits="userSpaceOnUse" x1="535.4175" y1="342.9932" x2="535.4175" y2="847.5596" gradientTransform="matrix(4.489659e-11 -1 1 4.489659e-11 -342.9932 847.5596)">
			<stop  offset="0" style="stop-color:#00BCDF"/>
			<stop  offset="0.2766" style="stop-color:#00B5D8"/>
			<stop  offset="0.6753" style="stop-color:#00A4C5"/>
			<stop  offset="1" style="stop-color:#0092B0"/>
		</linearGradient>
		<path fill="url(#SVGID_10_)" d="M440.3,297.6c-48.4-2.5-108-12.3-165.7-21.7C175.7,259.7,88.8,244.1,0,253.5l0,116.6
			c18.8,2.3,31.6,4.7,68.9,2.9c52-2.5,116.1-12.3,178.1-21.7c91.3-13.9,179.2-27.3,257.6-24.9v-31.7
			C494.2,297,475.1,299.4,440.3,297.6z"/>
		<polygon fill="#234093" points="0,601 504.6,601 252.3,571.9 		"/>

			<linearGradient id="SVGID_11_" gradientUnits="userSpaceOnUse" x1="697.7194" y1="548.6116" x2="772.9099" y2="414.4795" gradientTransform="matrix(4.489659e-11 -1 1 4.489659e-11 -342.9932 847.5596)">
			<stop  offset="0" style="stop-color:#5EB579"/>
			<stop  offset="1" style="stop-color:#7EBB64"/>
		</linearGradient>
		<path fill="url(#SVGID_11_)" d="M83.3,134.2c44.9-2.9,96.7-16.5,151.5-30.9c8.8-2.3,17.7-4.7,26.7-7C181.8,74.1,91.1,52.5,0,70.1
			l0,49.5C22.4,131.9,48.5,136.4,83.3,134.2z"/>

			<linearGradient id="SVGID_12_" gradientUnits="userSpaceOnUse" x1="367.2164" y1="354.2296" x2="500.8662" y2="853.0175" gradientTransform="matrix(4.489659e-11 -1 1 4.489659e-11 -342.9932 847.5596)">
			<stop  offset="0" style="stop-color:#009ED1"/>
			<stop  offset="0.2356" style="stop-color:#0FA1CE"/>
			<stop  offset="0.6881" style="stop-color:#37A9C5"/>
			<stop  offset="1" style="stop-color:#56B0BD"/>
		</linearGradient>
		<path fill="url(#SVGID_12_)" d="M247,351.3c-62,9.4-126.1,19.2-178.1,21.7c-37.3,1.8-50.1-0.6-68.9-2.9l0,68.3
			c66.1-2.5,140.4,2.5,264.7,11.5c71.7,5.2,182,13.2,239.9,11.6V326.3C426.2,323.9,338.3,337.4,247,351.3z"/>

			<linearGradient id="SVGID_13_" gradientUnits="userSpaceOnUse" x1="293.0835" y1="342.9932" x2="293.0835" y2="847.5596" gradientTransform="matrix(4.489659e-11 -1 1 4.489659e-11 -342.9932 847.5596)">
			<stop  offset="0" style="stop-color:#0A4E9B"/>
			<stop  offset="0.4603" style="stop-color:#1B61A7"/>
			<stop  offset="1" style="stop-color:#337DB9"/>
		</linearGradient>
		<polygon fill="url(#SVGID_13_)" points="0,601 252.3,571.9 504.6,601 504.6,508 0,507.9 		"/>

			<linearGradient id="SVGID_14_" gradientUnits="userSpaceOnUse" x1="374.6812" y1="847.5596" x2="374.6812" y2="342.9932" gradientTransform="matrix(4.489659e-11 -1 1 4.489659e-11 -342.9932 847.5596)">
			<stop  offset="0" style="stop-color:#3C9BC6"/>
			<stop  offset="1" style="stop-color:#1C68A6"/>
		</linearGradient>
		<path fill="url(#SVGID_14_)" d="M264.7,449.9c-124.3-9-198.6-14-264.7-11.5l0,69.5l504.6,0.1v-46.6
			C446.7,463,336.4,455,264.7,449.9z"/>
	</g>
</g>
</svg>
